<?xml version="1.0" encoding="UTF-8" standalone="no"?>
<!DOCTYPE svg PUBLIC "-//W3C//DTD SVG 1.1//EN" "http://www.w3.org/Graphics/SVG/1.1/DTD/svg11.dtd">
<svg width="100%" height="100%" viewBox="0 0 1183 1241" version="1.1" xmlns="http://www.w3.org/2000/svg" xmlns:xlink="http://www.w3.org/1999/xlink" xml:space="preserve" xmlns:serif="http://www.serif.com/" style="fill-rule:evenodd;clip-rule:evenodd;stroke-linejoin:round;stroke-miterlimit:2;">
    <g id="Capa-1" serif:id="Capa 1" transform="matrix(4.16667,0,0,4.16667,0,0)">
        <g transform="matrix(-1,0,0,1,145.562,260.823)">
            <path d="M0.001,-231.889C-64.034,-231.889 -115.944,-179.979 -115.944,-115.944C-115.944,-51.91 -64.034,0 0.001,0C64.035,0 115.945,-51.91 115.945,-115.944C115.945,-179.979 64.035,-231.889 0.001,-231.889" style="fill:white;fill-rule:nonzero;"/>
        </g>
        <g transform="matrix(1,0,0,1,192.389,156.009)">
            <path d="M0,-5.334L-4.998,-5.334C-7.496,-5.334 -8.546,-4.434 -8.521,-2.835C-8.515,-2.116 -8.173,-1.441 -7.596,-1.011C-6.757,-0.385 -5.715,-0.091 -4.673,-0.187C-3.412,0 -2.124,-0.164 -0.949,-0.661C-0.3,-1.111 0,-2.11 0,-3.685L0,-5.334Z" style="fill:rgb(20,90,121);fill-rule:nonzero;"/>
        </g>
        <g transform="matrix(1,0,0,1,109.928,128.618)">
            <path d="M0,7.765C0.877,6.65 1.329,5.259 1.274,3.842C1.317,2.395 0.868,0.977 0,-0.181C-1.012,-1.277 -2.459,-1.863 -3.948,-1.78L-10.87,-1.78L-10.87,9.489L-3.948,9.489C-2.424,9.628 -0.934,8.977 0,7.765" style="fill:rgb(20,90,121);fill-rule:nonzero;"/>
        </g>
        <g transform="matrix(1,0,0,1,106.505,155.134)">
            <path d="M0,-11.78L-7.497,-11.78L-7.497,0.014L0,0.014C1.537,0.097 3.015,-0.586 3.948,-1.81C4.791,-2.999 5.229,-4.426 5.198,-5.883C5.236,-7.363 4.798,-8.818 3.948,-10.031C2.997,-11.223 1.522,-11.877 0,-11.78" style="fill:rgb(20,90,121);fill-rule:nonzero;"/>
        </g>
        <g transform="matrix(-0.450868,-0.892591,-0.892591,0.450868,127.583,142.343)">
            <path d="M-3.431,-4.216C-1.242,-3.415 -0.049,-1.055 -0.704,1.182C-1.25,2.412 -2.217,3.407 -3.431,3.986L-7.306,-3.685C-6.126,-4.34 -4.744,-4.53 -3.431,-4.216" style="fill:rgb(20,90,121);fill-rule:nonzero;"/>
        </g>
        <g transform="matrix(1,0,0,1,204.483,131.985)">
            <path d="M0,26.337C-0.99,25.329 -1.508,23.949 -1.424,22.539L-1.424,10.045L-3.548,10.045L-3.548,6.621L-1.524,6.621L-1.524,0.25L2.549,0.25L2.549,6.621L5.522,6.621L5.522,9.845L2.649,9.845L2.649,22.064C2.649,23.139 3.124,23.663 4.098,23.638L5.623,23.638L5.623,27.587L3.499,27.587C2.191,27.638 0.922,27.14 0,26.212L0,26.337ZM-12.169,25.862C-12.553,26.573 -13.171,27.129 -13.918,27.437C-14.958,27.818 -16.06,27.997 -17.167,27.961C-19.094,28.052 -20.98,27.379 -22.414,26.087C-23.687,24.923 -24.39,23.263 -24.338,21.539C-24.393,19.916 -23.789,18.338 -22.664,17.167C-21.325,15.889 -19.514,15.228 -17.667,15.342L-12.019,15.342L-12.019,13.143C-12.019,11.294 -13.369,10.395 -16.167,10.444C-17.013,10.403 -17.859,10.513 -18.666,10.77C-19.272,11.032 -19.773,11.489 -20.09,12.069L-23.313,9.57C-21.703,7.436 -19.105,6.284 -16.442,6.522C-14.307,6.385 -12.181,6.899 -10.345,7.996C-8.724,9.288 -7.853,11.302 -8.021,13.368L-8.021,27.686L-12.094,27.686L-12.094,25.862L-12.169,25.862ZM-29.186,27.686L-33.234,27.686L-33.234,15.192C-33.143,13.97 -33.548,12.763 -34.358,11.844C-35.1,11.053 -36.149,10.624 -37.232,10.67C-38.322,10.627 -39.378,11.054 -40.131,11.844C-40.958,12.754 -41.374,13.965 -41.28,15.192L-41.28,27.686L-45.378,27.686L-45.378,6.621L-41.28,6.621L-41.28,8.845C-40.021,7.219 -38.063,6.291 -36.008,6.347C-34.3,6.353 -32.658,7.004 -31.41,8.17C-29.944,9.595 -29.154,11.576 -29.236,13.618L-29.186,27.686ZM-52.825,10.67C-53.827,10.652 -54.796,11.029 -55.523,11.719C-56.423,12.581 -56.89,13.8 -56.798,15.043L-56.798,27.686L-60.871,27.686L-60.871,6.621L-56.798,6.621L-56.798,8.845C-54.467,5.974 -50.25,5.535 -47.378,7.866C-47.335,7.9 -47.293,7.936 -47.252,7.971L-50.151,11.619C-50.892,10.967 -51.838,10.596 -52.825,10.569L-52.825,10.67ZM-77.088,27.437C-78.14,27.038 -79.126,26.482 -80.012,25.787C-80.952,24.87 -81.669,23.751 -82.111,22.514C-82.747,20.84 -83.044,19.056 -82.985,17.266C-83.04,15.51 -82.777,13.757 -82.21,12.094C-81.813,10.864 -81.147,9.737 -80.262,8.795C-79.497,8.003 -78.567,7.389 -77.538,6.996C-76.601,6.653 -75.612,6.475 -74.614,6.471C-72.416,6.444 -70.295,7.289 -68.717,8.82C-67.021,10.547 -66.116,12.899 -66.218,15.317L-66.218,18.791L-78.912,18.791C-79.01,20.218 -78.492,21.619 -77.488,22.639C-76.577,23.531 -75.339,24.01 -74.064,23.963C-72.362,23.95 -70.745,23.214 -69.617,21.939L-66.668,24.438C-68.472,26.602 -71.147,27.848 -73.964,27.836C-75.025,27.837 -76.08,27.668 -77.088,27.337L-77.088,27.437ZM-87.508,-16.618C-87.508,-17.997 -86.389,-19.116 -85.009,-19.116C-83.629,-19.116 -82.51,-17.997 -82.51,-16.618C-82.51,-15.237 -83.629,-14.119 -85.009,-14.119C-86.389,-14.119 -87.508,-15.237 -87.508,-16.618M-114.22,28.761L-114.22,-10.395L-97.903,-10.395C-95.226,-10.565 -92.62,-9.496 -90.832,-7.497C-89.145,-5.369 -88.26,-2.715 -88.333,0C-88.297,1.592 -88.621,3.173 -89.282,4.622C-89.643,5.356 -90.125,6.023 -90.707,6.596C-91.384,7.312 -92.168,7.919 -93.03,8.396C-91.312,8.938 -89.886,10.156 -89.082,11.769C-88.246,13.533 -87.819,15.464 -87.833,17.416C-87.678,20.303 -88.565,23.149 -90.332,25.438C-91.821,27.41 -94.157,28.56 -96.629,28.536L-114.22,28.761ZM-114.895,-29.112C-114.895,-30.629 -113.664,-31.86 -112.146,-31.86C-110.628,-31.86 -109.397,-30.629 -109.397,-29.112C-109.397,-27.594 -110.628,-26.363 -112.146,-26.363C-113.664,-26.363 -114.895,-27.594 -114.895,-29.112M-120.992,-17.292C-120.686,-18.638 -119.346,-19.48 -118,-19.173C-117.064,-18.96 -116.333,-18.228 -116.119,-17.292C-116.426,-15.947 -117.765,-15.104 -119.111,-15.411C-120.047,-15.624 -120.779,-16.356 -120.992,-17.292M-152.602,-6.397C-152.602,-12.12 -143.706,-12.12 -143.806,-6.397C-143.906,-0.675 -152.677,-0.65 -152.602,-6.372L-152.602,-6.397ZM-139.208,-23.289C-139.208,-17.592 -148.104,-17.592 -148.029,-23.289C-147.954,-28.987 -139.059,-29.112 -139.133,-23.289L-139.208,-23.289ZM-136.435,-3.499C-136.436,-1.663 -137.924,-0.176 -139.76,-0.177C-141.594,-0.178 -143.081,-1.664 -143.082,-3.499C-143.082,-5.355 -141.577,-6.86 -139.721,-6.86C-137.864,-6.86 -136.36,-5.355 -136.36,-3.499L-136.435,-3.499ZM-135.985,-20.766C-134.205,-20.767 -132.76,-19.326 -132.757,-17.546C-132.755,-15.766 -134.197,-14.321 -135.977,-14.319L-135.985,-14.319C-137.765,-14.319 -139.208,-15.762 -139.208,-17.542C-139.208,-19.322 -137.765,-20.766 -135.985,-20.766M-128.014,-36.983C-128.014,-31.261 -136.909,-31.261 -136.81,-36.983C-136.709,-42.705 -127.938,-42.605 -128.014,-36.908L-128.014,-36.983ZM-123.815,-29.112C-123.975,-27.283 -125.586,-25.93 -127.415,-26.088C-129.022,-26.228 -130.298,-27.503 -130.437,-29.112C-130.278,-30.94 -128.667,-32.293 -126.839,-32.135C-125.23,-31.995 -123.956,-30.72 -123.815,-29.112M-126.664,-9.646C-126.357,-10.991 -125.018,-11.833 -123.673,-11.527C-122.736,-11.313 -122.005,-10.582 -121.792,-9.646C-122.153,-8.314 -123.526,-7.528 -124.858,-7.89C-125.714,-8.122 -126.382,-8.79 -126.614,-9.646L-126.664,-9.646ZM-124.166,-0.35C-124.472,0.995 -125.812,1.837 -127.157,1.531C-128.094,1.317 -128.825,0.586 -129.038,-0.35C-128.8,-1.709 -127.505,-2.619 -126.146,-2.38C-125.109,-2.199 -124.297,-1.387 -124.116,-0.35L-124.166,-0.35ZM-129.738,-1.975C-129.738,-0.456 -130.968,0.774 -132.486,0.774C-134.004,0.774 -135.235,-0.456 -135.235,-1.975C-135.235,-3.506 -133.993,-4.748 -132.461,-4.748C-130.93,-4.748 -129.688,-3.506 -129.688,-1.975L-129.738,-1.975ZM-132.237,-13.519C-132.237,-15.037 -131.006,-16.267 -129.488,-16.267C-127.97,-16.267 -126.739,-15.037 -126.739,-13.519C-126.739,-12.001 -127.97,-10.77 -129.488,-10.77C-131.006,-10.77 -132.237,-12.001 -132.237,-13.519M-119.618,-23.089C-119.618,-21.571 -120.848,-20.341 -122.366,-20.341C-123.884,-20.341 -125.115,-21.571 -125.115,-23.089C-125.115,-24.607 -123.884,-25.838 -122.366,-25.838C-120.848,-25.838 -119.618,-24.607 -119.618,-23.089M-112.496,-45.354C-112.68,-42.918 -114.803,-41.092 -117.239,-41.275C-119.419,-41.44 -121.153,-43.173 -121.317,-45.354C-121.133,-47.789 -119.01,-49.615 -116.574,-49.432C-114.394,-49.267 -112.66,-47.535 -112.496,-45.354M-111.122,-36.383C-111.123,-34.548 -112.611,-33.06 -114.447,-33.061C-116.281,-33.062 -117.768,-34.549 -117.769,-36.383C-117.452,-38.191 -115.729,-39.399 -113.921,-39.082C-112.542,-38.841 -111.463,-37.761 -111.222,-36.383L-111.122,-36.383ZM-107.698,-22.19C-107.698,-20.81 -108.817,-19.691 -110.197,-19.691C-111.577,-19.691 -112.696,-20.81 -112.696,-22.19C-112.421,-23.542 -111.103,-24.416 -109.75,-24.142C-108.767,-23.942 -107.998,-23.173 -107.798,-22.19L-107.698,-22.19ZM-103.351,-38.332C-103.35,-40.167 -101.861,-41.655 -100.025,-41.654C-98.191,-41.653 -96.705,-40.166 -96.704,-38.332C-96.704,-36.455 -98.225,-34.934 -100.102,-34.934C-101.979,-34.934 -103.5,-36.455 -103.5,-38.332L-103.351,-38.332ZM-98.353,-23.564C-98.353,-22.184 -99.472,-21.065 -100.852,-21.065C-102.232,-21.065 -103.351,-22.184 -103.351,-23.564C-103.351,-24.944 -102.232,-26.063 -100.852,-26.063C-99.472,-26.063 -98.353,-24.944 -98.353,-23.564M-103.125,-30.886C-103.125,-32.404 -101.895,-33.634 -100.377,-33.634C-98.859,-33.634 -97.628,-32.404 -97.628,-30.886C-97.628,-29.368 -98.859,-28.137 -100.377,-28.137C-101.895,-28.137 -103.125,-29.368 -103.125,-30.886M-95.004,-47.578C-95.004,-41.855 -103.9,-41.855 -103.8,-47.578C-103.7,-53.3 -94.93,-53.3 -95.004,-47.578M-89.857,-21.615C-89.857,-20.235 -90.976,-19.116 -92.355,-19.116C-93.736,-19.116 -94.854,-20.235 -94.854,-21.615C-94.854,-22.995 -93.736,-24.114 -92.355,-24.114C-90.976,-24.114 -89.857,-22.995 -89.857,-21.615M-87.033,-28.287C-87.033,-26.769 -88.264,-25.538 -89.782,-25.538C-91.3,-25.538 -92.531,-26.769 -92.531,-28.287C-92.544,-29.805 -91.325,-31.047 -89.807,-31.06C-88.289,-31.074 -87.047,-29.855 -87.033,-28.337L-87.033,-28.287ZM-83.885,-35.333C-84.044,-33.505 -85.655,-32.151 -87.483,-32.31C-89.092,-32.45 -90.367,-33.726 -90.506,-35.333C-90.362,-37.163 -88.761,-38.529 -86.932,-38.385C-85.322,-38.258 -84.036,-36.991 -83.885,-35.384L-83.885,-35.333ZM-79.262,-44.104C-79.445,-41.668 -81.569,-39.843 -84.004,-40.026C-86.185,-40.19 -87.918,-41.924 -88.083,-44.104C-88.158,-49.851 -79.187,-49.851 -79.262,-44.104M-72.74,-28.112C-72.741,-26.276 -74.229,-24.789 -76.065,-24.79C-77.899,-24.791 -79.386,-26.278 -79.387,-28.112C-79.386,-29.948 -77.897,-31.434 -76.062,-31.434C-74.228,-31.433 -72.741,-29.946 -72.74,-28.112M-65.543,-35.783C-65.543,-30.061 -74.439,-30.061 -74.339,-35.783C-74.239,-41.506 -65.568,-41.48 -65.644,-35.783L-65.543,-35.783ZM-68.717,-3.099C-68.862,-1.574 -70.216,-0.455 -71.741,-0.601C-73.065,-0.727 -74.113,-1.775 -74.239,-3.099C-73.916,-4.596 -72.44,-5.548 -70.943,-5.225C-69.878,-4.995 -69.047,-4.163 -68.817,-3.099L-68.717,-3.099ZM-77.088,-13.569C-77.088,-15.087 -75.857,-16.318 -74.339,-16.318C-72.821,-16.318 -71.591,-15.087 -71.591,-13.569C-71.591,-12.023 -72.844,-10.77 -74.389,-10.77C-75.935,-10.77 -77.188,-12.023 -77.188,-13.569L-77.088,-13.569ZM-75.114,-1.3C-75.114,0.08 -76.233,1.199 -77.613,1.199C-78.993,1.199 -80.111,0.08 -80.111,-1.3C-79.837,-2.652 -78.518,-3.526 -77.166,-3.251C-76.182,-3.052 -75.414,-2.283 -75.214,-1.3L-75.114,-1.3ZM-83.51,-22.34C-83.365,-23.865 -82.011,-24.983 -80.486,-24.838C-79.162,-24.712 -78.114,-23.663 -77.988,-22.34C-78.133,-20.815 -79.487,-19.696 -81.012,-19.842C-82.336,-19.968 -83.384,-21.016 -83.51,-22.34M-77.513,-9.671C-77.513,-8.291 -78.631,-7.172 -80.012,-7.172C-81.392,-7.172 -82.51,-8.291 -82.51,-9.671C-82.51,-11.051 -81.392,-12.17 -80.012,-12.17C-78.631,-12.17 -77.513,-11.051 -77.513,-9.671M-64.844,-17.542C-65.003,-15.713 -66.614,-14.36 -68.443,-14.519C-70.051,-14.659 -71.326,-15.934 -71.466,-17.542C-71.307,-19.371 -69.695,-20.724 -67.867,-20.565C-66.259,-20.425 -64.984,-19.15 -64.844,-17.542M-61.221,-4.798C-61.379,-2.97 -62.991,-1.616 -64.819,-1.775C-66.428,-1.915 -67.703,-3.19 -67.842,-4.798C-67.684,-6.627 -66.072,-7.98 -64.244,-7.821C-62.636,-7.681 -61.36,-6.406 -61.221,-4.798M-55.648,-23.114C-55.648,-17.392 -64.519,-17.392 -64.444,-23.114C-64.369,-28.837 -55.548,-28.837 -55.648,-23.114M-50.925,-7.797C-50.925,-2.1 -59.821,-2.1 -59.746,-7.797C-59.317,-10.202 -57.02,-11.803 -54.615,-11.373C-52.764,-11.043 -51.324,-9.578 -51.025,-7.722L-50.925,-7.797ZM-58.922,-105.25C-124.322,-105.25 -177.34,-52.232 -177.34,13.168C-177.34,78.569 -124.322,131.587 -58.922,131.587C6.479,131.587 59.497,78.569 59.497,13.168C59.497,-52.232 6.479,-105.25 -58.922,-105.25" style="fill:rgb(20,90,121);fill-rule:nonzero;"/>
        </g>
        <g transform="matrix(1,0,0,1,94.7485,182.571)">
            <path d="M0,-3.626L6.718,-3.626C10.058,-3.626 11.706,-5.812 11.706,-8.285C11.706,-9.81 11.128,-10.964 10.222,-11.623C9.397,-12.241 8.491,-12.529 6.966,-12.529L0,-12.529L0,-3.626ZM-4.451,-16.486L7.007,-16.486C9.48,-16.486 11.417,-15.909 12.983,-14.55C14.632,-13.148 15.91,-10.922 15.91,-8.285C15.91,-4.492 13.767,-1.4 10.222,-0.165L17.023,12.86L11.747,12.86L5.688,0.33L0,0.33L0,12.86L-4.451,12.86L-4.451,-16.486Z" style="fill:white;fill-rule:nonzero;"/>
        </g>
        <g transform="matrix(1,0,0,1,127.071,186.859)">
            <path d="M0,-3.752C-0.124,-6.925 -1.937,-8.615 -4.411,-8.615C-6.884,-8.615 -8.739,-6.925 -8.82,-3.752L0,-3.752ZM-8.82,-0.289C-8.82,3.132 -6.718,4.863 -3.834,4.863C-2.226,4.863 -0.494,4.122 0.742,2.843L3.792,5.44C1.731,7.831 -0.948,8.82 -3.751,8.82C-8.037,8.82 -13.025,6.759 -13.025,-1.815C-13.025,-9.934 -8.45,-12.572 -4.411,-12.572C0.206,-12.572 4.205,-9.151 4.205,-3.752L4.205,-0.289L-8.82,-0.289Z" style="fill:white;fill-rule:nonzero;"/>
        </g>
        <g transform="matrix(1,0,0,1,147.892,189.167)">
            <path d="M0,-8.367L-0.083,-8.367L-4.452,6.265L-8.162,6.265L-14.838,-14.632L-10.387,-14.632L-6.389,-0.001L-6.307,-0.001L-1.567,-14.632L1.483,-14.632L6.224,-0.001L6.306,-0.001L10.304,-14.632L14.755,-14.632L8.078,6.265L4.369,6.265L0,-8.367Z" style="fill:white;fill-rule:nonzero;"/>
        </g>
        <g transform="matrix(1,0,0,1,176.422,183.396)">
            <path d="M0,3.174L-5.028,3.174C-7.501,3.174 -8.655,4.163 -8.655,5.689C-8.655,7.09 -7.542,8.326 -4.699,8.326C-1.194,8.326 0,7.956 0,4.699L0,3.174ZM0,10.181L-0.082,10.181C-0.948,11.623 -2.39,12.283 -5.234,12.283C-9.891,12.283 -12.612,9.521 -12.612,5.895C-12.612,2.555 -10.304,-0.289 -5.811,-0.289L0,-0.289L0,-2.473C0,-4.451 -1.277,-5.152 -4.286,-5.152C-6.47,-5.152 -7.501,-4.74 -8.243,-3.544L-11.54,-6.059C-9.933,-8.284 -7.625,-9.109 -4.492,-9.109C0.66,-9.109 4.205,-7.378 4.205,-2.225L4.205,12.036L0,12.036L0,10.181Z" style="fill:white;fill-rule:nonzero;"/>
        </g>
        <g transform="matrix(1,0,0,1,186.074,195.184)">
            <path d="M0,-20.649L4.204,-20.649L4.204,-18.424L4.287,-18.424C5.605,-20.072 7.501,-20.897 9.727,-20.897C11.417,-20.897 12.819,-20.278 14.096,-19.289L11.046,-15.663C10.057,-16.404 9.356,-16.692 8.285,-16.692C6.224,-16.692 4.204,-15.374 4.204,-12.323L4.204,0.248L0,0.248L0,-20.649Z" style="fill:white;fill-rule:nonzero;"/>
        </g>
        <g transform="matrix(1,0,0,1,205.574,176.801)">
            <path d="M0,8.162C0,11.417 0.207,14.674 4.163,14.674C8.079,14.674 8.285,11.211 8.285,8.162C8.285,5.153 8.079,1.69 4.163,1.69C0.207,1.69 0,4.947 0,8.162M8.285,16.447C6.966,17.889 5.029,18.878 2.886,18.878C0.331,18.878 -1.525,17.724 -2.72,16.158C-3.874,14.674 -4.203,13.313 -4.203,8.162C-4.203,3.051 -3.874,1.69 -2.72,0.207C-1.525,-1.36 0.331,-2.514 2.886,-2.514C5.029,-2.514 6.719,-1.525 8.285,-0.041L8.285,-10.716L12.489,-10.716L12.489,18.631L8.285,18.631L8.285,16.447Z" style="fill:white;fill-rule:nonzero;"/>
        </g>
        <g transform="matrix(1,0,0,1,223.387,180.923)">
            <path d="M0,8.12C1.814,9.891 3.792,10.799 6.595,10.799C8.986,10.799 10.716,9.891 10.716,8.12C10.716,6.636 9.604,6.183 8.162,6.059L4.453,5.73C0.99,5.441 -1.565,3.38 -1.565,-0.206C-1.565,-4.451 1.814,-6.636 6.224,-6.636C9.893,-6.636 12.366,-5.524 14.427,-3.792L11.831,-0.742C10.181,-1.896 8.491,-2.679 6.224,-2.679C3.544,-2.679 2.638,-1.607 2.638,-0.165C2.638,0.742 3.298,1.648 5.4,1.813L8.862,2.061C13.189,2.35 14.921,4.988 14.921,8.326C14.921,12.406 11.129,14.756 6.266,14.756C2.886,14.756 -0.246,13.519 -2.926,11.006L0,8.12Z" style="fill:white;fill-rule:nonzero;"/>
        </g>
    </g>
</svg>
