<?xml version="1.0" encoding="UTF-8" standalone="no"?>
<!DOCTYPE svg PUBLIC "-//W3C//DTD SVG 1.1//EN" "http://www.w3.org/Graphics/SVG/1.1/DTD/svg11.dtd">
<svg width="184" height="184" viewBox="0 0 184 184" fill="none" xmlns="http://www.w3.org/2000/svg">
<path fill-rule="evenodd" clip-rule="evenodd" d="M91.5255 0C142.04 0 183.051 41.0111 183.051 91.5255C183.051 142.04 142.04 183.051 91.5255 183.051C41.0111 183.051 0 142.04 0 91.5255C0 41.0111 41.0111 0 91.5255 0ZM47.13 74.2529C44.8048 74.2529 42.9199 76.1315 42.9199 78.4473C42.9199 80.7631 44.8048 82.6404 47.13 82.6404H47.1403C49.4654 82.6378 51.349 80.7578 51.3463 78.442C51.3425 76.1263 49.455 74.2515 47.13 74.2529ZM57.5417 53.1547V53.2522C57.6411 45.8404 46.1842 45.7103 46.0522 53.1547C45.9229 60.599 57.5417 60.599 57.5417 53.1547ZM84.079 72.4003H83.9484C83.6872 71.1214 82.6827 70.1209 81.3987 69.8608C79.6313 69.5043 77.9098 70.6413 77.5506 72.4003C77.5506 74.1957 79.0122 75.6514 80.8147 75.6514C82.6174 75.6514 84.079 74.1957 84.079 72.4003ZM74.6781 63.3947C74.6781 65.3696 76.2861 66.9713 78.269 66.9713C80.2518 66.9713 81.8598 65.3696 81.8598 63.3947C81.8598 61.4211 80.2518 59.8196 78.269 59.8196C76.2861 59.8196 74.6781 61.4211 74.6781 63.3947ZM66.7141 78.7726C66.9923 79.9903 67.9486 80.9425 69.1711 81.2197C70.9294 81.619 72.6783 80.5224 73.0794 78.7726C72.7998 77.5548 71.8449 76.6024 70.6224 76.3254C68.8641 75.9259 67.1138 77.0214 66.7141 78.7726ZM52.0256 83.6812C52.0256 85.6561 53.6336 87.2576 55.6164 87.2576C57.5993 87.2576 59.2073 85.6561 59.2073 83.6812C59.2073 81.7063 57.5993 80.1061 55.6164 80.1061C53.6336 80.1061 52.0256 81.7063 52.0256 83.6812ZM62.5681 100.814H62.6334C62.397 99.4649 61.3365 98.4085 59.9819 98.173C58.2066 97.862 56.5151 99.046 56.2042 100.814C56.4824 102.032 57.4373 102.983 58.6612 103.261C60.4181 103.659 62.1685 102.564 62.5681 100.814ZM46.5421 96.7171H46.6401C46.6401 94.3025 44.6756 92.3445 42.2498 92.3445C39.8254 92.3445 37.8597 94.3025 37.8597 96.7171C37.8609 99.1045 39.8033 101.038 42.1989 101.039C44.5971 101.04 46.5407 99.1058 46.5421 96.7171ZM68.5089 71.2306C68.5089 69.2558 66.9023 67.6543 64.9193 67.6543C62.9366 67.6543 61.3286 69.2558 61.3286 71.2306C61.3286 73.2055 62.9366 74.8058 64.9193 74.8058C66.9023 74.8058 68.5089 73.2055 68.5089 71.2306ZM75.5598 138.687L98.5377 138.395C101.767 138.426 104.818 136.93 106.763 134.364C109.071 131.386 110.23 127.684 110.027 123.927C110.045 121.388 109.488 118.876 108.396 116.581C107.346 114.482 105.483 112.898 103.239 112.193C104.365 111.572 105.389 110.782 106.273 109.851C107.033 109.105 107.663 108.238 108.135 107.283C108.998 105.397 109.421 103.341 109.374 101.269C109.469 97.7371 108.313 94.2844 106.11 91.5157C103.774 88.9151 100.37 87.5243 96.8736 87.7455H75.5598V138.687ZM96.7756 116.06C98.7636 115.934 100.69 116.785 101.933 118.336C103.043 119.914 103.615 121.807 103.565 123.732C103.606 125.628 103.034 127.484 101.933 129.031C100.714 130.624 98.7833 131.512 96.7756 131.404H86.9828V116.06H96.7756ZM101.247 106.991C100.027 108.568 98.0805 109.415 96.0898 109.234H87.0481V94.5731H96.0898C98.0348 94.4651 99.9249 95.2275 101.247 96.6534C102.381 98.16 102.967 100.005 102.911 101.887C102.983 103.731 102.392 105.541 101.247 106.991ZM140.056 78.4473C139.873 76.3553 138.208 74.6965 136.107 74.5144C133.72 74.3075 131.614 76.0678 131.406 78.4473C131.589 80.5393 133.255 82.1981 135.355 82.3802C137.744 82.5871 139.848 80.8268 140.056 78.4473ZM115.674 72.2052C115.839 73.9277 117.208 75.291 118.937 75.455C120.929 75.6449 122.698 74.1892 122.887 72.2052C122.722 70.4839 121.353 69.1191 119.624 68.9553C117.632 68.7666 115.863 70.2212 115.674 72.2052ZM144.788 95.0271C144.607 92.9352 142.94 91.2763 140.84 91.0942C138.452 90.8873 136.346 92.6476 136.14 95.0271C136.322 97.1191 137.987 98.778 140.089 98.9601C142.476 99.1669 144.582 97.4054 144.788 95.0271ZM89.7572 51.3996H89.5627C89.5627 53.8416 91.5493 55.8203 94.0012 55.8203C96.453 55.8203 98.4398 53.8416 98.4398 51.3996C98.4384 49.0135 96.4974 47.0791 94.1018 47.0777C91.7036 47.0764 89.7586 49.0123 89.7572 51.3996ZM42.9199 70.9705H43.0179C43.1146 63.3947 31.4957 63.5574 31.3978 70.9705C31.2997 78.3823 42.9199 78.3823 42.9199 70.9705ZM107.383 73.1483C107.383 71.353 105.922 69.8971 104.121 69.8971C102.317 69.8971 100.856 71.353 100.856 73.1483C100.856 74.9436 102.317 76.3995 104.121 76.3995C105.922 76.3995 107.383 74.9436 107.383 73.1483ZM55.2899 98.6999H55.3552C55.3552 96.7081 53.7328 95.0922 51.733 95.0922C49.7318 95.0922 48.1096 96.7081 48.1096 98.6999C48.1096 100.676 49.7176 102.276 51.7004 102.276C53.6833 102.276 55.2899 100.676 55.2899 98.6999ZM126.641 99.578H126.51C126.249 98.2991 125.246 97.2988 123.961 97.0399C122.195 96.682 120.472 97.8191 120.114 99.578C120.114 101.373 121.574 102.829 123.377 102.829C125.179 102.829 126.641 101.373 126.641 99.578ZM134.997 97.2376H134.866C134.566 95.8532 133.48 94.7709 132.089 94.4716C130.134 94.0515 128.206 95.29 127.784 97.2376C127.949 98.9601 129.318 100.324 131.047 100.488C133.039 100.677 134.808 99.2216 134.997 97.2376ZM25.4244 92.9468V92.9793C25.3263 100.424 36.7833 100.391 36.9139 92.9468C37.0445 85.5013 25.4244 85.5013 25.4244 92.9468ZM123.507 88.6875C123.507 86.8921 122.047 85.4362 120.243 85.4362C118.441 85.4362 116.98 86.8921 116.98 88.6875C116.98 90.4829 118.441 91.9386 120.243 91.9386C122.047 91.9386 123.507 90.4829 123.507 88.6875ZM139.143 54.7158H139.011C139.11 47.304 127.784 47.2702 127.653 54.7158C127.523 62.1601 139.143 62.1601 139.143 54.7158ZM115.184 55.3013V55.235C114.987 53.1442 113.307 51.4958 111.204 51.3307C108.815 51.1433 106.724 52.9204 106.536 55.3013C106.717 57.392 108.383 59.0521 110.484 59.2342C112.872 59.4411 114.977 57.6795 115.184 55.3013ZM121.223 43.8903C121.321 36.4134 109.603 36.4134 109.701 43.8903C109.916 46.7264 112.18 48.9823 115.029 49.1957C118.209 49.4338 120.984 47.0594 121.223 43.8903ZM152.068 71.1981C152.199 63.7525 140.676 63.7525 140.578 71.1981C140.481 78.6424 152.068 78.6424 152.068 71.1981ZM77.8118 42.264C77.5976 39.4265 75.3326 37.1733 72.4851 36.9585C69.3031 36.7205 66.53 39.096 66.2897 42.264C66.5038 45.1014 68.7688 47.356 71.6164 47.5708C74.7984 47.8088 77.5715 45.4331 77.8118 42.264ZM100.66 39.3706C100.757 31.9262 89.3013 31.9262 89.1707 39.3706C89.0401 46.8162 100.66 46.8162 100.66 39.3706ZM111.072 64.4681V64.403C111.054 62.4281 109.432 60.8422 107.449 60.8605C105.466 60.8773 103.874 62.4932 103.891 64.4681C103.891 66.443 105.499 68.0445 107.481 68.0445C109.464 68.0445 111.072 66.443 111.072 64.4681ZM124.063 83.6162H123.932C123.932 85.6274 125.569 87.2576 127.588 87.2576C129.606 87.2576 131.243 85.6274 131.243 83.6162C131.243 81.6412 129.636 80.0397 127.653 80.0397C125.671 80.0397 124.063 81.6412 124.063 83.6162ZM110.452 79.6494C110.452 81.4461 111.913 82.9006 113.716 82.9006C115.519 82.9006 116.98 81.4461 116.98 79.6494C116.98 77.8553 115.519 76.3995 113.716 76.3995C111.913 76.3995 110.452 77.8553 110.452 79.6494ZM158.238 91.1255L158.106 91.2231C157.716 88.8085 155.835 86.9025 153.417 86.4731C150.276 85.9137 147.276 87.9966 146.715 91.1255C146.617 98.5373 158.238 98.5373 158.238 91.1255ZM63.0266 63.3947C62.8425 61.3027 61.1783 59.644 59.0766 59.4618C56.6888 59.2564 54.5845 61.0166 54.3768 63.3947C54.5585 65.4881 56.2251 67.1469 58.3242 67.329C60.7133 67.5345 62.8177 65.7742 63.0266 63.3947ZM129.742 64.6957C129.741 62.3097 127.798 60.3751 125.403 60.3738C123.006 60.3738 121.061 62.3071 121.06 64.6957C121.061 67.0817 123.003 69.0164 125.399 69.0176C127.797 69.019 129.741 67.0844 129.742 64.6957ZM59.3052 88.72H59.3705C59.6735 89.8336 60.5461 90.7027 61.6643 91.0045C63.4042 91.4755 65.1975 90.4528 65.6692 88.72C65.391 87.5022 64.4361 86.5512 63.2121 86.2728C61.4553 85.8747 59.7062 86.9701 59.3052 88.72ZM79.6066 53.9352H79.476C79.1611 52.1424 77.7518 50.7374 75.9505 50.4238C73.5888 50.0114 71.3382 51.5831 70.9241 53.9352C70.9253 56.3212 72.8677 58.2558 75.2633 58.2571C77.6616 58.2585 79.6052 56.3226 79.6066 53.9352ZM90.0524 61.0869C90.0524 63.0617 91.6591 64.6632 93.6419 64.6632C95.6248 64.6632 97.2327 63.0617 97.2327 61.0869C97.2327 59.1118 95.6248 57.5117 93.6419 57.5117C91.6591 57.5117 90.0524 59.1118 90.0524 61.0869ZM96.2857 70.6126C96.2857 68.8172 94.8241 67.3615 93.0214 67.3615C91.2189 67.3615 89.7572 68.8172 89.7572 70.6126C89.7572 72.408 91.2189 73.8639 93.0214 73.8639C94.8241 73.8639 96.2857 72.408 96.2857 70.6126Z" fill="white"/>
</svg>



