<?xml version="1.0" encoding="UTF-8" standalone="no"?>
<!DOCTYPE svg PUBLIC "-//W3C//DTD SVG 1.1//EN" "http://www.w3.org/Graphics/SVG/1.1/DTD/svg11.dtd">
<svg width="100%" height="100%" viewBox="0 0 667 667" version="1.1" xmlns="http://www.w3.org/2000/svg" xmlns:xlink="http://www.w3.org/1999/xlink" xml:space="preserve" xmlns:serif="http://www.serif.com/" style="fill-rule:evenodd;clip-rule:evenodd;stroke-linejoin:round;stroke-miterlimit:2;">
    <g transform="matrix(1,0,0,1,-66.6667,-66.6667)">
        <g id="SVGRepo_iconCarrier">
            <path d="M433.333,66.667C341.287,66.667 266.667,141.286 266.667,233.333C266.667,251.743 281.591,266.667 300,266.667C318.409,266.667 333.333,251.743 333.333,233.333C333.333,178.105 378.103,133.333 433.333,133.333L566.667,133.333C621.897,133.333 666.667,178.105 666.667,233.333L666.667,566.667C666.667,621.897 621.897,666.667 566.667,666.667L433.333,666.667C378.103,666.667 333.333,621.897 333.333,566.667C333.333,548.257 318.409,533.333 300,533.333C281.591,533.333 266.667,548.257 266.667,566.667C266.667,658.713 341.287,733.333 433.333,733.333L566.667,733.333C658.713,733.333 733.333,658.713 733.333,566.667L733.333,233.333C733.333,141.286 658.713,66.667 566.667,66.667L433.333,66.667Z" style="fill:white;fill-rule:nonzero;"/>
            <path d="M100,366.667C81.591,366.667 66.667,381.59 66.667,400C66.667,418.41 81.591,433.333 100,433.333L376.07,433.333C373.103,436.993 370.26,440.543 367.57,443.933C359.387,454.257 352.46,463.32 347.567,469.817C345.12,473.07 343.173,475.683 341.833,477.503L340.28,479.613L339.863,480.183L339.717,480.383C339.713,480.387 339.7,480.407 366.667,500L339.717,480.383C328.896,495.277 332.18,516.147 347.073,526.967C361.967,537.787 382.81,534.487 393.633,519.597L393.727,519.467L394.067,519L395.46,517.107C396.69,515.44 398.51,512.99 400.823,509.917C405.457,503.767 412.04,495.153 419.807,485.353C435.517,465.543 455.41,441.73 473.57,423.57L497.14,400L473.57,376.43C455.41,358.27 435.517,334.457 419.807,314.646C412.04,304.847 405.457,296.234 400.823,290.083C398.51,287.011 396.69,284.561 395.46,282.893L394.067,281.001L393.727,280.534L393.65,280.427C382.827,265.535 361.967,262.212 347.073,273.033C332.18,283.854 328.879,304.699 339.7,319.593L366.667,300C339.7,319.593 339.697,319.591 339.7,319.593L339.75,319.662L339.863,319.818L340.28,320.387L341.833,322.497C343.173,324.315 345.12,326.932 347.567,330.183C352.46,336.68 359.387,345.743 367.57,356.067C370.26,359.457 373.103,363.007 376.07,366.667L100,366.667Z" style="fill:white;fill-rule:nonzero;"/>
        </g>
    </g>
</svg>
