<?xml version="1.0" encoding="UTF-8" standalone="no"?>
<!DOCTYPE svg PUBLIC "-//W3C//DTD SVG 1.1//EN" "http://www.w3.org/Graphics/SVG/1.1/DTD/svg11.dtd">
<svg width="100%" height="100%" viewBox="0 0 800 800" version="1.1" xmlns="http://www.w3.org/2000/svg" xmlns:xlink="http://www.w3.org/1999/xlink" xml:space="preserve" xmlns:serif="http://www.serif.com/" style="fill-rule:evenodd;clip-rule:evenodd;stroke-linejoin:round;stroke-miterlimit:2;">
    <g transform="matrix(1.14602,0,0,1.14602,-1434.33,-5558.21)">
        <g id="SVGRepo_iconCarrier">
            <g>
                <g transform="matrix(1.2,0,0,1.2,-365,-975)">
                    <circle cx="1637.5" cy="5062.5" r="187.5" style="fill:white;stroke:white;stroke-width:1px;"/>
                    <g transform="matrix(0.435556,0,0,0.431186,924.278,2882.11)">
                        <circle cx="1637.5" cy="5062.5" r="187.5" style="fill:rgb(247,147,26);stroke:white;stroke-width:1px;"/>
                    </g>
                </g>
                <g transform="matrix(1,0,0,1.25,0,-1350)">
                    <path d="M1475,5320L1475,5478.45C1475,5486.12 1480.5,5493.12 1489.15,5496.48C1497.8,5499.8 1508.1,5498.88 1515.6,5494.07C1539.15,5479.05 1567.48,5460.95 1584.65,5449.98C1593.8,5444.15 1606.78,5444.15 1615.9,5450C1632.95,5460.95 1660.98,5478.93 1684.35,5493.93C1691.85,5498.75 1702.15,5499.68 1710.83,5496.35C1719.48,5493.03 1725,5486.03 1725,5478.32L1725,5320" style="fill:white;stroke:white;stroke-width:1px;"/>
                </g>
                <path d="M1450,5299.95L1450,5498.05C1450,5517.28 1461,5534.78 1478.33,5543.12C1495.62,5551.45 1516.17,5549.12 1531.2,5537.15L1600.25,5482.03L1668.73,5536.93C1683.73,5548.95 1704.3,5551.3 1721.62,5542.98C1738.98,5534.68 1750,5517.15 1750,5497.9L1750,5299.95C1810.7,5254.35 1850,5181.73 1850,5100C1850,4962.03 1737.98,4850 1600,4850C1462.03,4850 1350,4962.03 1350,5100C1350,5181.73 1389.3,5254.35 1450,5299.95ZM1700,5329.18C1669.38,5342.57 1635.55,5350 1600,5350C1564.45,5350 1530.62,5342.57 1500,5329.18L1500,5498.05L1569.08,5442.93C1587.35,5428.35 1613.3,5428.38 1631.53,5443L1700,5497.9L1700,5329.18ZM1600,4900C1710.38,4900 1800,4989.62 1800,5100C1800,5210.38 1710.38,5300 1600,5300C1489.62,5300 1400,5210.38 1400,5100C1400,4989.62 1489.62,4900 1600,4900ZM1552.45,4991.68L1542.25,5023.03L1509.28,5023.03C1487.62,5023.03 1468.42,5036.98 1461.73,5057.57C1455.03,5078.18 1462.38,5100.75 1479.9,5113.48L1506.58,5132.88L1496.38,5164.23C1489.7,5184.82 1497.03,5207.4 1514.55,5220.12C1532.08,5232.85 1555.8,5232.85 1573.33,5220.12L1600,5200.75L1626.67,5220.12C1644.2,5232.85 1667.92,5232.85 1685.45,5220.12C1702.98,5207.4 1710.3,5184.82 1703.62,5164.23L1693.42,5132.88L1720.1,5113.48C1737.62,5100.75 1744.98,5078.18 1738.28,5057.57C1731.58,5036.98 1712.38,5023.03 1690.73,5023.03L1657.75,5023.03L1647.55,4991.68C1640.85,4971.07 1621.65,4957.12 1600,4957.12C1578.35,4957.12 1559.15,4971.07 1552.45,4991.68ZM1600,5007.12L1615.8,5055.75C1619.15,5066.05 1628.75,5073.03 1639.58,5073.03L1690.73,5073.03L1649.35,5103.1C1640.58,5109.45 1636.92,5120.75 1640.28,5131.05L1656.08,5179.68L1614.7,5149.62C1605.92,5143.25 1594.08,5143.25 1585.3,5149.62L1543.92,5179.68L1559.73,5131.05C1563.08,5120.75 1559.42,5109.45 1550.65,5103.1L1509.28,5073.03L1560.42,5073.03C1571.25,5073.03 1580.85,5066.05 1584.2,5055.75L1600,5007.12Z" style="fill:rgb(20,90,121);stroke:white;stroke-width:1px;"/>
            </g>
        </g>
    </g>
</svg>
