<?xml version="1.0" encoding="UTF-8" standalone="no"?>
<!DOCTYPE svg PUBLIC "-//W3C//DTD SVG 1.1//EN" "http://www.w3.org/Graphics/SVG/1.1/DTD/svg11.dtd">
<svg width="185" height="185" viewBox="0 0 185 185" fill="none" xmlns="http://www.w3.org/2000/svg">
<path fill-rule="evenodd" clip-rule="evenodd" d="M135.026 44.9687C134.928 45.883 134.247 46.2614 133.957 46.3821C133.328 46.6421 132.642 46.5491 132.116 46.1274L125.066 40.4786C124.225 39.8027 122.999 39.9249 122.304 40.7466C122.149 40.9312 106.411 59.3754 78.0013 78.0178C56.6686 92.0273 23.3311 95.7083 9.94345 89.4068C6.93271 87.9905 5.28953 86.2095 5.05815 84.1096C4.25231 76.9612 12.5682 74.8069 26.2025 71.8837C30.9359 70.8697 35.8314 69.8207 40.4975 68.3389C85.5654 53.9952 101.982 25.7941 102.66 24.5993C103.139 23.7505 102.935 22.6783 102.174 22.0685L94.1941 15.6562C93.3781 14.9999 93.4211 14.1273 93.4752 13.7835C93.5315 13.4319 93.7724 12.5773 94.7708 12.2063C106.395 7.87631 119.54 5.44448 133.841 4.97632H133.889C134.703 4.97632 135.414 5.61348 135.486 6.41963V6.42154C136.603 18.7016 136.449 31.6714 135.026 44.9677V44.9687Z" fill="white"/>
<path fill-rule="evenodd" clip-rule="evenodd" d="M44.7609 178.004C44.7609 179.102 43.8694 179.993 42.7718 179.993H6.9674C5.86972 179.993 4.97827 179.102 4.97827 178.004V149.58C4.97827 147.911 5.63453 146.339 6.7809 145.269C13.0806 139.381 20.8776 133.824 29.957 128.752C31.476 127.905 33.1348 127.482 34.7917 127.482C36.5262 127.482 38.261 127.944 39.8345 128.866C42.9194 130.679 44.7609 133.89 44.7609 137.456V178.004Z" fill="white"/>
<path fill-rule="evenodd" clip-rule="evenodd" d="M112.391 178.004C112.391 179.102 111.5 179.993 110.402 179.993H74.5978C73.5002 179.993 72.6087 179.102 72.6087 178.004V113.775C72.6087 112.107 73.2653 110.535 74.4113 109.465C80.711 103.577 88.5084 98.0193 97.5874 92.9475C99.1061 92.1006 100.765 91.6773 102.422 91.6773C104.157 91.6773 105.892 92.1394 107.465 93.062C110.55 94.8745 112.391 98.0855 112.391 101.652V178.004Z" fill="white"/>
<path fill-rule="evenodd" clip-rule="evenodd" d="M180.022 178.004C180.022 179.102 179.13 179.993 178.033 179.993H142.228C141.131 179.993 140.239 179.102 140.239 178.004V73.9928C140.239 72.3242 140.896 70.7523 142.042 69.6823C148.341 63.7945 156.139 58.2367 165.218 53.1649C166.737 52.318 168.396 51.8947 170.053 51.8947C171.787 51.8947 173.522 52.3568 175.095 53.2794C178.18 55.0919 180.022 58.3029 180.022 61.8693V178.004Z" fill="white"/>
<path d="M177.108 49.8489C172.802 47.32 167.627 47.2595 163.279 49.6913C153.918 54.921 145.859 60.6688 139.326 66.7756C137.378 68.5938 136.261 71.2242 136.261 73.9921V178.004C136.261 181.294 138.938 183.971 142.228 183.971H178.033C181.323 183.971 184 181.294 184 178.004V61.8693C184 56.8748 181.424 52.3819 177.108 49.8489ZM180.022 178.004C180.022 179.102 179.13 179.993 178.033 179.993H142.228C141.131 179.993 140.239 179.102 140.239 178.004V73.9928C140.239 72.3241 140.896 70.7523 142.042 69.6823C148.341 63.7944 156.139 58.2366 165.218 53.1648C166.737 52.3179 168.396 51.8947 170.053 51.8947C171.787 51.8947 173.522 52.3568 175.095 53.2794C178.18 55.0919 180.022 58.3028 180.022 61.8693V178.004ZM109.478 89.6315C105.169 87.1026 99.9982 87.0421 95.6489 89.4739C86.2879 94.7036 78.2282 100.451 71.6956 106.558C69.7475 108.376 68.6304 111.007 68.6304 113.775V178.004C68.6304 181.294 71.3073 183.971 74.5978 183.971H110.402C113.693 183.971 116.37 181.294 116.37 178.004V101.652C116.37 96.6571 113.794 92.1645 109.478 89.6315ZM112.391 178.004C112.391 179.102 111.5 179.993 110.402 179.993H74.5978C73.5001 179.993 72.6087 179.102 72.6087 178.004V113.775C72.6087 112.107 73.2653 110.535 74.4113 109.465C80.711 103.577 88.5084 98.0192 97.5874 92.9474C99.1061 92.1005 100.765 91.6773 102.422 91.6773C104.157 91.6773 105.892 92.1394 107.465 93.062C110.55 94.8745 112.391 98.0854 112.391 101.652V178.004ZM41.8472 125.436C37.5367 122.907 32.3659 122.846 28.0184 125.278C18.6574 130.508 10.5981 136.256 4.06517 142.363C2.11709 144.181 1 146.811 1 149.579V178.004C1 181.294 3.67689 183.971 6.96739 183.971H42.7717C46.0622 183.971 48.7391 181.294 48.7391 178.004V137.456C48.7391 132.461 46.1631 127.969 41.8472 125.436ZM44.7609 178.004C44.7609 179.102 43.8694 179.993 42.7717 179.993H6.96739C5.86971 179.993 4.97826 179.102 4.97826 178.004V149.58C4.97826 147.911 5.63452 146.339 6.78089 145.269C13.0805 139.381 20.8776 133.824 29.957 128.752C31.476 127.905 33.1348 127.482 34.7917 127.482C36.5262 127.482 38.261 127.944 39.8345 128.866C42.9194 130.679 44.7609 133.89 44.7609 137.456V178.004ZM138.98 45.391C140.431 31.8344 140.589 18.6017 139.449 6.06095C139.184 3.12786 136.681 0.95828 133.713 1.00061C118.979 1.48246 105.41 3.99608 93.3841 8.4756C91.3307 9.2407 89.8969 10.987 89.5472 13.147C89.2015 15.2953 90.0058 17.3936 91.7037 18.7554L98.2924 24.0522C94.3431 29.9168 77.1153 52.5079 39.2903 64.5458C34.8089 65.9697 30.0092 66.9993 25.3686 67.9939C12.247 70.8044 -0.144467 73.4619 1.1028 84.5517C1.37491 87.0011 2.8335 90.4571 8.24935 93.0057C12.9755 95.2297 19.7952 96.3563 27.6318 96.3563C44.0031 96.3563 64.8053 91.4402 80.1846 81.343C104.477 65.4007 119.705 49.5459 124.054 44.7656L129.629 49.2314C131.279 50.5583 133.53 50.867 135.486 50.0532C137.45 49.2353 138.757 47.4928 138.98 45.391ZM135.026 44.9677C134.929 45.8827 134.247 46.2614 133.957 46.3821C133.328 46.6421 132.642 46.5491 132.116 46.1274L125.066 40.4786C124.225 39.8027 122.999 39.9249 122.304 40.7466C122.149 40.9312 106.411 59.3754 78.0013 78.0178C56.6686 92.0273 23.3311 95.7084 9.94345 89.4068C6.9327 87.9905 5.28952 86.2095 5.05814 84.1097C4.25231 76.9612 12.5681 74.8069 26.2024 71.8837C30.9359 70.8697 35.8314 69.8207 40.4974 68.3389C85.5654 53.9952 101.982 25.7941 102.66 24.5993C103.139 23.7505 102.935 22.6783 102.174 22.0685L94.1941 15.6562C93.3781 14.9999 93.4211 14.1273 93.4752 13.7836C93.5315 13.4319 93.7724 12.5773 94.7708 12.2063C106.395 7.87632 119.54 5.44448 133.84 4.97632H133.889C134.703 4.97632 135.414 5.61348 135.486 6.41963V6.42154C136.603 18.702 136.45 31.6724 135.026 44.969V44.9677Z" fill="white" stroke="white"/>
</svg>

