<?xml version="1.0" encoding="UTF-8" standalone="no"?>
<!DOCTYPE svg PUBLIC "-//W3C//DTD SVG 1.1//EN" "http://www.w3.org/Graphics/SVG/1.1/DTD/svg11.dtd">
<svg width="100%" height="100%" viewBox="0 0 800 800" version="1.1" xmlns="http://www.w3.org/2000/svg" xmlns:xlink="http://www.w3.org/1999/xlink" xml:space="preserve" xmlns:serif="http://www.serif.com/" style="fill-rule:evenodd;clip-rule:evenodd;">
    <g id="SVGRepo_iconCarrier">
        <g>
            <path d="M357.08,422.364C357.08,443.311 317.211,460.255 268.042,460.255C218.848,460.255 179.005,443.311 179.005,422.364C179.005,401.417 218.848,384.425 268.042,384.425C317.212,384.423 357.08,401.416 357.08,422.364Z" style="fill:white;fill-rule:nonzero;stroke:white;stroke-width:1px;"/>
            <path d="M179.005,486.523C179.005,507.47 218.848,524.439 268.042,524.439C317.212,524.439 357.08,507.472 357.08,486.523L357.08,477.1C357.08,474.219 355.639,471.533 353.198,469.922C350.781,468.311 347.73,468.017 345.069,469.189C345.069,469.189 317.212,486.377 268.042,486.377C218.848,486.377 191.016,469.189 191.016,469.189C188.33,468.017 185.278,468.309 182.861,469.922C180.444,471.534 179.003,474.219 179.003,477.1L179.003,486.523L179.005,486.523Z" style="fill:white;fill-rule:nonzero;stroke:white;stroke-width:1px;"/>
            <path d="M296.802,550.634C289.55,562.866 284.155,576.22 280.859,590.331C276.636,590.625 272.388,590.747 268.017,590.747C218.872,590.747 179.003,573.78 179.003,552.783L179.003,543.433C179.003,540.528 180.419,537.794 182.861,536.231C185.253,534.62 188.33,534.327 190.991,535.498C190.991,535.498 218.872,552.686 268.017,552.686C278.638,552.686 288.233,551.905 296.802,550.634Z" style="fill:white;fill-rule:nonzero;stroke:white;stroke-width:1px;"/>
            <path d="M280.958,656.641C276.758,656.934 272.389,657.031 268.019,657.031C218.873,657.031 179.005,640.039 179.005,619.141L179.005,609.717C179.005,606.836 180.42,604.102 182.862,602.491C185.255,600.928 188.331,600.634 190.992,601.758C190.992,601.758 218.873,618.994 268.019,618.994C271.144,618.994 274.147,618.92 277.102,618.798C277.003,620.264 277.003,621.777 277.003,623.242C277.002,634.717 278.345,645.898 280.958,656.641Z" style="fill:white;fill-rule:nonzero;stroke:white;stroke-width:1px;"/>
            <path d="M312.939,718.116C299.78,721.436 284.423,723.341 268.017,723.341C218.872,723.341 179.003,706.348 179.003,685.45L179.003,676.027C179.003,673.097 180.419,670.388 182.861,668.8C185.253,667.189 188.33,666.92 190.991,668.067C190.991,668.067 218.872,685.255 268.017,685.255C276.073,685.255 283.642,684.816 290.503,684.034C296.363,696.459 303.906,707.911 312.939,718.116Z" style="fill:white;fill-rule:nonzero;stroke:white;stroke-width:1px;"/>
            <path d="M600.416,278.173C600.416,299.12 560.547,316.089 511.378,316.089C462.184,316.089 422.341,299.122 422.341,278.173C422.341,257.225 462.184,240.283 511.378,240.283C560.547,240.283 600.416,257.227 600.416,278.173Z" style="fill:white;fill-rule:nonzero;stroke:white;stroke-width:1px;"/>
            <path d="M422.339,423.681C422.339,444.58 462.183,461.572 511.377,461.572C560.547,461.572 600.414,444.58 600.414,423.681L600.414,414.258C600.414,411.328 598.973,408.642 596.533,407.031C594.116,405.444 591.064,405.175 588.403,406.298C588.403,406.298 560.547,423.511 511.377,423.511C462.183,423.511 434.35,406.298 434.35,406.298C431.664,405.175 428.613,405.444 426.195,407.031C423.778,408.642 422.338,411.328 422.338,414.258L422.338,423.681L422.339,423.681Z" style="fill:white;fill-rule:nonzero;stroke:white;stroke-width:1px;"/>
            <path d="M422.339,351.806C422.339,372.753 462.183,389.722 511.377,389.722C560.547,389.722 600.414,372.755 600.414,351.806L600.414,342.406C600.414,339.502 598.973,336.816 596.533,335.205C594.116,333.594 591.064,333.325 588.403,334.472C588.403,334.472 560.547,351.659 511.377,351.659C462.183,351.659 434.35,334.472 434.35,334.472C431.664,333.325 428.613,333.592 426.195,335.205C423.778,336.817 422.338,339.502 422.338,342.406L422.338,351.806L422.339,351.806Z" style="fill:white;fill-rule:nonzero;stroke:white;stroke-width:1px;"/>
            <path d="M596.533,622.559C594.116,620.972 591.064,620.703 588.403,621.827C588.403,621.827 578.711,627.759 560.816,632.667C559.888,646.73 556.909,660.206 552.123,672.853C580.786,666.555 600.414,653.859 600.414,639.161L600.414,629.761C600.416,626.856 598.975,624.17 596.533,622.559Z" style="fill:white;fill-rule:nonzero;stroke:white;stroke-width:1px;"/>
            <path d="M596.533,550.733C594.116,549.122 591.064,548.853 588.403,550C588.403,550 574.072,558.789 547.973,563.794C553.173,574.927 556.958,586.816 559.106,599.316C583.911,592.577 600.416,580.809 600.416,567.333L600.416,557.909C600.416,555.03 598.975,552.344 596.533,550.733Z" style="fill:white;fill-rule:nonzero;stroke:white;stroke-width:1px;"/>
            <path d="M596.533,478.881C594.116,477.294 591.064,477.002 588.403,478.148C588.403,478.148 560.547,495.361 511.377,495.361C493.139,495.361 477.856,492.992 465.844,490.014C490.356,498.387 511.864,513.281 528.222,532.714C569.311,529.345 600.414,513.989 600.414,495.506L600.414,486.083C600.416,483.203 598.975,480.469 596.533,478.881Z" style="fill:white;fill-rule:nonzero;stroke:white;stroke-width:1px;"/>
            <rect x="384.814" y="67.139" width="30.372" height="69.434" style="fill:white;stroke:white;stroke-width:1px;"/>
            <path d="M247.877,173.242L221.558,188.428L186.841,128.32L213.159,113.111L247.877,173.242Z" style="fill:white;fill-rule:nonzero;stroke:white;stroke-width:1px;"/>
            <path d="M121.338,288.672L106.128,314.991L45.997,280.273L61.181,253.955L121.338,288.672Z" style="fill:white;fill-rule:nonzero;stroke:white;stroke-width:1px;"/>
            <path d="M754.005,653.955L738.819,680.273L678.686,645.556L693.872,619.239L754.005,653.955Z" style="fill:white;fill-rule:nonzero;stroke:white;stroke-width:1px;"/>
            <rect x="0" y="451.905" width="69.434" height="30.42" style="fill:white;stroke:white;stroke-width:1px;"/>
            <path d="M800,451.928L799.975,482.325L730.542,482.3L730.542,451.905L800,451.928Z" style="fill:white;fill-rule:nonzero;stroke:white;stroke-width:1px;"/>
            <path d="M106.128,619.239L121.314,645.556L61.181,680.273L45.997,653.955L106.128,619.239Z" style="fill:white;fill-rule:nonzero;stroke:white;stroke-width:1px;"/>
            <path d="M738.819,253.955L753.98,280.273L693.848,314.991L678.663,288.672L738.819,253.955Z" style="fill:white;fill-rule:nonzero;stroke:white;stroke-width:1px;"/>
            <path d="M586.841,113.111L613.134,128.32L578.419,188.428L552.123,173.242L586.841,113.111Z" style="fill:white;fill-rule:nonzero;stroke:white;stroke-width:1px;"/>
        </g>
        <g transform="matrix(0.194421,0,0,0.194421,302.767,506.242)">
            <path d="M591.5,0C917.958,0 1183,265.042 1183,591.5C1183,917.958 917.958,1183 591.5,1183C265.042,1183 0,917.958 0,591.5C0,265.042 265.042,0 591.5,0ZM304.586,479.873C289.559,479.873 277.378,492.014 277.378,506.98C277.378,521.946 289.559,534.079 304.586,534.079L304.653,534.079C319.679,534.062 331.852,521.912 331.835,506.946C331.81,491.98 319.612,479.864 304.586,479.873ZM371.874,343.522L371.874,344.152C372.516,296.252 298.474,295.411 297.621,343.522C296.785,391.632 371.874,391.632 371.874,343.522ZM543.376,467.9L542.532,467.9C540.844,459.635 534.352,453.169 526.054,451.488C514.632,449.184 503.506,456.532 501.185,467.9C501.185,479.503 510.631,488.911 522.28,488.911C533.93,488.911 543.376,479.503 543.376,467.9ZM482.621,409.7C482.621,422.463 493.013,432.814 505.828,432.814C518.642,432.814 529.034,422.463 529.034,409.7C529.034,396.945 518.642,386.595 505.828,386.595C493.013,386.595 482.621,396.945 482.621,409.7ZM431.152,509.082C432.95,516.952 439.13,523.106 447.031,524.897C458.394,527.478 469.697,520.391 472.289,509.082C470.482,501.212 464.311,495.057 456.41,493.267C445.047,490.685 433.735,497.765 431.152,509.082ZM336.225,540.805C336.225,553.568 346.617,563.918 359.431,563.918C372.246,563.918 382.638,553.568 382.638,540.805C382.638,528.042 372.246,517.7 359.431,517.7C346.617,517.7 336.225,528.042 336.225,540.805ZM404.358,651.529L404.78,651.529C403.252,642.81 396.398,635.983 387.644,634.461C376.171,632.451 365.239,640.103 363.23,651.529C365.028,659.399 371.199,665.545 379.109,667.344C390.463,669.917 401.775,662.838 404.358,651.529ZM300.787,625.052L301.42,625.052C301.42,609.447 288.724,596.793 273.047,596.793C257.379,596.793 244.675,609.447 244.675,625.052C244.683,640.481 257.236,652.975 272.718,652.983C288.217,652.992 300.778,640.489 300.787,625.052ZM442.751,460.341C442.751,447.578 432.368,437.228 419.553,437.228C406.739,437.228 396.347,447.578 396.347,460.341C396.347,473.104 406.739,483.446 419.553,483.446C432.368,483.446 442.751,473.104 442.751,460.341ZM488.319,896.292L636.818,894.4C657.686,894.602 677.405,884.933 689.975,868.352C704.892,849.107 712.379,825.178 711.071,800.904C711.189,784.492 707.585,768.256 700.527,753.425C693.74,739.863 681.702,729.622 667.199,725.065C674.476,721.054 681.094,715.95 686.809,709.93C691.723,705.113 695.791,699.505 698.839,693.333C704.419,681.15 707.154,667.857 706.85,654.472C707.466,631.644 699.995,609.33 685.754,591.437C670.661,574.63 648.661,565.642 626.063,567.071L488.319,567.071L488.319,896.292ZM625.43,750.061C638.278,749.246 650.73,754.745 658.758,764.767C665.933,774.966 669.631,787.199 669.31,799.643C669.572,811.893 665.874,823.891 658.758,833.888C650.882,844.18 638.405,849.922 625.43,849.224L562.142,849.224L562.142,750.061L625.43,750.061ZM654.326,691.45C646.441,701.64 633.863,707.114 620.998,705.945L562.564,705.945L562.564,611.196L620.998,611.196C633.568,610.498 645.783,615.425 654.326,624.64C661.653,634.377 665.444,646.299 665.081,658.465C665.545,670.379 661.729,682.075 654.326,691.45ZM905.138,506.98C903.956,493.46 893.193,482.74 879.618,481.563C864.187,480.226 850.579,491.602 849.237,506.98C850.418,520.5 861.182,531.22 874.756,532.397C890.196,533.734 903.795,522.358 905.138,506.98ZM747.565,466.639C748.628,477.771 757.475,486.582 768.652,487.642C781.526,488.869 792.956,479.461 794.18,466.639C793.116,455.515 784.269,446.695 773.092,445.636C760.219,444.417 748.789,453.817 747.565,466.639ZM935.722,614.13C934.548,600.611 923.777,589.89 910.203,588.713C894.771,587.376 881.163,598.752 879.829,614.13C881.003,627.65 891.766,638.371 905.349,639.548C920.78,640.884 934.388,629.5 935.722,614.13ZM580.072,332.179L578.815,332.179C578.815,347.961 591.654,360.749 607.5,360.749C623.345,360.749 636.185,347.961 636.185,332.179C636.176,316.759 623.632,304.257 608.15,304.248C592.651,304.24 580.081,316.751 580.072,332.179ZM277.378,458.66L278.011,458.66C278.636,409.7 203.547,410.751 202.914,458.66C202.28,506.56 277.378,506.56 277.378,458.66ZM693.985,472.734C693.985,461.132 684.539,451.723 672.898,451.723C661.24,451.723 651.802,461.132 651.802,472.734C651.802,484.337 661.24,493.746 672.898,493.746C684.539,493.746 693.985,484.337 693.985,472.734ZM357.321,637.866L357.743,637.866C357.743,624.994 347.258,614.551 334.334,614.551C321.401,614.551 310.917,624.994 310.917,637.866C310.917,650.638 321.309,660.979 334.123,660.979C346.938,660.979 357.321,650.638 357.321,637.866ZM818.441,643.541L817.597,643.541C815.909,635.276 809.425,628.811 801.119,627.138C789.706,624.825 778.571,632.174 776.258,643.541C776.258,655.144 785.696,664.553 797.345,664.553C808.995,664.553 818.441,655.144 818.441,643.541ZM872.443,628.416L871.599,628.416C869.657,619.469 862.642,612.474 853.652,610.54C841.014,607.825 828.554,615.829 825.828,628.416C826.891,639.548 835.738,648.359 846.915,649.419C859.789,650.646 871.219,641.238 872.443,628.416ZM164.31,600.686L164.31,600.896C163.676,649.007 237.719,648.796 238.563,600.686C239.407,552.568 164.31,552.568 164.31,600.686ZM798.189,573.159C798.189,561.556 788.752,552.147 777.094,552.147C765.444,552.147 756.006,561.556 756.006,573.159C756.006,584.762 765.444,594.17 777.094,594.17C788.752,594.17 798.189,584.762 798.189,573.159ZM899.237,353.611L898.384,353.611C899.026,305.711 825.828,305.492 824.983,353.611C824.139,401.721 899.237,401.721 899.237,353.611ZM744.399,357.395L744.399,356.966C743.124,343.454 732.268,332.801 718.677,331.734C703.237,330.523 689.722,342.008 688.506,357.395C689.68,370.906 700.443,381.635 714.026,382.812C729.457,384.149 743.057,372.764 744.399,357.395ZM783.425,283.649C784.058,235.328 708.327,235.328 708.961,283.649C710.353,301.978 724.983,316.557 743.394,317.936C763.95,319.475 781.88,304.13 783.425,283.649ZM982.768,460.131C983.612,412.012 909.147,412.012 908.514,460.131C907.881,508.241 982.768,508.241 982.768,460.131ZM502.873,273.139C501.489,254.801 486.851,240.239 468.448,238.851C447.884,237.313 429.962,252.665 428.409,273.139C429.793,291.476 444.431,306.047 462.834,307.435C483.398,308.973 501.32,293.62 502.873,273.139ZM650.535,254.44C651.16,206.329 577.126,206.329 576.282,254.44C575.438,302.558 650.535,302.558 650.535,254.44ZM717.824,416.637L717.824,416.216C717.706,403.453 707.222,393.204 694.407,393.322C681.593,393.431 671.302,403.874 671.412,416.637C671.412,429.4 681.804,439.75 694.618,439.75C707.433,439.75 717.824,429.4 717.824,416.637ZM801.777,540.385L800.933,540.385C800.933,553.383 811.511,563.918 824.561,563.918C837.604,563.918 848.181,553.383 848.181,540.385C848.181,527.621 837.798,517.271 824.983,517.271C812.169,517.271 801.777,527.621 801.777,540.385ZM713.815,514.749C713.815,526.36 723.261,535.76 734.91,535.76C746.56,535.76 756.006,526.36 756.006,514.749C756.006,503.154 746.56,493.746 734.91,493.746C723.261,493.746 713.815,503.154 713.815,514.749ZM1022.64,588.915L1021.79,589.546C1019.27,573.941 1007.11,561.623 991.488,558.848C971.186,555.233 951.795,568.694 948.173,588.915C947.54,636.815 1022.64,636.815 1022.64,588.915ZM407.321,409.7C406.131,396.18 395.376,385.46 381.793,384.283C366.362,382.955 352.762,394.331 351.42,409.7C352.594,423.229 363.365,433.949 376.931,435.126C392.371,436.454 405.971,425.078 407.321,409.7ZM838.482,418.108C838.473,402.688 825.921,390.185 810.438,390.177C794.948,390.177 782.378,402.671 782.37,418.108C782.378,433.528 794.931,446.031 810.413,446.039C825.912,446.048 838.473,433.545 838.482,418.108ZM383.271,573.369L383.693,573.369C385.651,580.566 391.29,586.183 398.517,588.133C409.761,591.177 421.351,584.568 424.399,573.369C422.601,565.499 416.43,559.353 408.52,557.554C397.166,554.981 385.862,562.06 383.271,573.369ZM514.472,348.566L513.628,348.566C511.593,336.98 502.485,327.9 490.844,325.873C475.581,323.208 461.036,333.365 458.36,348.566C458.368,363.986 470.921,376.489 486.403,376.497C501.902,376.506 514.463,363.995 514.472,348.566ZM581.98,394.785C581.98,407.548 592.364,417.898 605.178,417.898C617.993,417.898 628.384,407.548 628.384,394.785C628.384,382.021 617.993,371.68 605.178,371.68C592.364,371.68 581.98,382.021 581.98,394.785ZM622.264,456.347C622.264,444.744 612.818,435.336 601.168,435.336C589.519,435.336 580.072,444.744 580.072,456.347C580.072,467.95 589.519,477.359 601.168,477.359C612.818,477.359 622.264,467.95 622.264,456.347Z" style="fill:white;"/>
        </g>
    </g>
</svg>
