<!DOCTYPE svg PUBLIC "-//W3C//DTD SVG 1.1//EN" "http://www.w3.org/Graphics/SVG/1.1/DTD/svg11.dtd">
<!-- Uploaded to: SVG Repo, www.svgrepo.com, Transformed by: SVG Repo Mixer Tools -->
<svg fill="#ffffff" height="800px" width="800px" version="1.1" id="Layer_1" xmlns="http://www.w3.org/2000/svg" xmlns:xlink="http://www.w3.org/1999/xlink" viewBox="0 0 512 512" xml:space="preserve" stroke="#ffffff">
<g id="SVGRepo_bgCarrier" stroke-width="0"/>
<g id="SVGRepo_tracerCarrier" stroke-linecap="round" stroke-linejoin="round"/>
<g id="SVGRepo_iconCarrier"> <g> <g> <path d="M373.333,364.715c-2.901-8.661-11.008-14.528-20.139-14.571l-58.027-0.235l-10.261-31.424 c2.773-1.067,5.376-2.603,7.509-4.736l64-64c4.011-4.011,6.251-9.429,6.251-15.083V21.333C362.667,9.557,353.131,0,341.333,0 H170.667c-11.797,0-21.333,9.557-21.333,21.333v213.333c0,5.739,2.304,11.243,6.421,15.253l65.472,64 c1.771,1.728,3.861,2.965,6.059,3.968l-10.453,32.021l-58.027,0.235c-9.131,0.043-17.237,5.909-20.139,14.571 c-2.901,8.661,0.043,18.219,7.317,23.744l46.485,35.371l-20.629,59.883c-3.051,8.789-0.021,18.539,7.445,24.085 c7.488,5.568,17.664,5.589,25.237,0.149L256,470.656l51.477,37.291C311.232,510.635,315.605,512,320,512 c4.459,0,8.939-1.408,12.715-4.203c7.467-5.547,10.496-15.296,7.445-24.085l-20.629-59.883l46.485-35.371 C373.291,382.933,376.235,373.376,373.333,364.715z"/> </g> </g> </g>
</svg>