<?xml version="1.0" encoding="UTF-8" standalone="no"?>
<!DOCTYPE svg PUBLIC "-//W3C//DTD SVG 1.1//EN" "http://www.w3.org/Graphics/SVG/1.1/DTD/svg11.dtd">
<svg width="100%" height="100%" viewBox="0 0 850 850" version="1.1" xmlns="http://www.w3.org/2000/svg" xmlns:xlink="http://www.w3.org/1999/xlink" xml:space="preserve" xmlns:serif="http://www.serif.com/" style="fill-rule:evenodd;clip-rule:evenodd;stroke-linecap:round;stroke-linejoin:round;">
    <g transform="matrix(1,0,0,1,25,25)">
        <g transform="matrix(1.10677,0,0,1.1612,-94.7266,-25)">
            <ellipse cx="447" cy="366" rx="384" ry="366" style="fill:rgb(20,90,121);"/>
        </g>
        <g transform="matrix(0.875,0,0,0.875,50,50)">
            <path d="M400,316.667L400,400L466.667,450M264.397,206.809C284.71,200 312.122,200 360,200L440,200C487.877,200 515.29,200 535.603,206.81M264.397,206.809C260.949,207.965 257.705,209.318 254.601,210.899C235.785,220.487 220.487,235.785 210.899,254.601C200,275.992 200,303.995 200,360L200,440C200,496.007 200,524.007 210.899,545.4C220.487,564.217 235.785,579.513 254.601,589.1C257.704,590.683 260.946,592.033 264.393,593.19M264.397,206.809L300.001,100L500,100L535.603,206.81M535.603,206.81C539.05,207.966 542.293,209.318 545.4,210.899C564.217,220.487 579.513,235.785 589.1,254.601C600,275.992 600,303.995 600,360L600,440C600,496.007 600,524.007 589.1,545.4C579.513,564.217 564.217,579.513 545.4,589.1C542.293,590.683 539.05,592.037 535.6,593.193M264.393,593.19C284.705,600 312.119,600 360,600L440,600C487.873,600 515.287,600 535.6,593.193M264.393,593.19L299.987,700L499.987,700L535.6,593.193" style="fill:none;fill-rule:nonzero;stroke:white;stroke-width:66.67px;"/>
        </g>
    </g>
</svg>
