<?xml version="1.0" encoding="UTF-8" standalone="no"?>
<!DOCTYPE svg PUBLIC "-//W3C//DTD SVG 1.1//EN" "http://www.w3.org/Graphics/SVG/1.1/DTD/svg11.dtd">
<svg width="100%" height="100%" viewBox="0 0 564 801" version="1.1" xmlns="http://www.w3.org/2000/svg" xmlns:xlink="http://www.w3.org/1999/xlink" xml:space="preserve" xmlns:serif="http://www.serif.com/" style="fill-rule:evenodd;clip-rule:evenodd;stroke-linejoin:round;stroke-miterlimit:2;">
    <g transform="matrix(1,0,0,1,-112.505,-139.762)">
        <g transform="matrix(1,0,0,1,-642,63.7631)">
            <path d="M857,600L1215,602C1215,602 1273.41,788.232 1275,814C1276.59,839.768 1256,832 1256,832L1178,808C1178,808 1136.55,854.279 1121,870C1105.45,885.721 1098.18,864.778 1098,865C1097.82,865.222 1042.3,663.771 1042,664C1041.7,664.229 1031,664 1031,664C1031,664 985.795,841.066 975,865C964.205,888.934 949,868 949,868C949,868 896.001,808.081 896,808C895.999,807.919 859.657,819.229 825,830C790.343,840.771 797.271,816.39 798,816C798.729,815.61 857,600 857,600Z" style="fill:rgb(103,174,205);"/>
        </g>
        <g transform="matrix(1,0,0,1,-642,63.7631)">
            <path d="M760,272C760,272 763.914,256.767 796,238C828.086,219.233 829.797,205.335 834,191C838.203,176.665 842.44,143.755 868,129C893.56,114.245 923.742,126.319 947,122C970.258,117.681 1005.25,75.741 1035,76C1064.75,76.259 1097.86,114.683 1117,120C1136.14,125.317 1184.92,116.848 1201,127C1217.08,137.152 1225.63,146.87 1235,180C1244.37,213.13 1244.13,221.24 1283,242C1321.87,262.76 1321.49,299.36 1315,316C1308.51,332.64 1294.64,358.559 1299,377C1303.36,395.441 1320.23,426.169 1318,457C1315.77,487.831 1251.89,506.193 1243,533C1234.11,559.807 1236.33,577.242 1213,607C1189.67,636.758 1130.79,601.504 1097,633C1063.21,664.496 1036.8,663.535 1034,664C1031.2,664.465 1007.08,662.046 976,633C944.916,603.954 914.137,623.938 884,617C853.863,610.062 844.553,589.777 841,571C837.447,552.223 828.722,525.108 816,517C803.278,508.892 770.062,487.111 763,475C755.938,462.889 750.227,439.813 759,421C767.773,402.187 775.554,384.906 773,361C770.446,337.094 743.064,306.167 760,272Z" style="fill:rgb(20,90,121);"/>
        </g>
        <g id="Fondo" transform="matrix(1.22616,0,0,1.11111,-918.201,-2.90356)">
            <ellipse cx="1070.5" cy="397.5" rx="183.5" ry="202.5" style="fill:white;"/>
        </g>
        <g id="Corona" transform="matrix(1,0,0,1,-642,63.7631)">
            <g transform="matrix(1,0,0,0.952381,-1,18.7619)">
                <ellipse cx="1158" cy="383.5" rx="10" ry="10.5" style="fill:rgb(20,90,121);"/>
            </g>
            <g transform="matrix(1,0,0,0.952381,-13,-22.2381)">
                <ellipse cx="1158" cy="383.5" rx="10" ry="10.5" style="fill:rgb(20,90,121);"/>
            </g>
            <g transform="matrix(1,0,0,0.952381,-38,-56.2381)">
                <ellipse cx="1158" cy="383.5" rx="10" ry="10.5" style="fill:rgb(20,90,121);"/>
            </g>
            <g transform="matrix(1,0,0,0.952381,-74,-79.2381)">
                <ellipse cx="1158" cy="383.5" rx="10" ry="10.5" style="fill:rgb(20,90,121);"/>
            </g>
            <g transform="matrix(1,0,0,0.952381,-115,-89.2381)">
                <ellipse cx="1158" cy="383.5" rx="10" ry="10.5" style="fill:rgb(20,90,121);"/>
            </g>
            <g transform="matrix(1,0,0,0.952381,-161,-82.2381)">
                <ellipse cx="1158" cy="383.5" rx="10" ry="10.5" style="fill:rgb(20,90,121);"/>
            </g>
            <g transform="matrix(1,0,0,0.952381,-202,-59.2381)">
                <ellipse cx="1158" cy="383.5" rx="10" ry="10.5" style="fill:rgb(20,90,121);"/>
            </g>
            <g transform="matrix(1,0,0,0.952381,-230,-22.2381)">
                <ellipse cx="1158" cy="383.5" rx="10" ry="10.5" style="fill:rgb(20,90,121);"/>
            </g>
            <g transform="matrix(1,0,0,0.952381,-242,22.7619)">
                <ellipse cx="1158" cy="383.5" rx="10" ry="10.5" style="fill:rgb(20,90,121);"/>
            </g>
            <g transform="matrix(0.9,0,0,0.857143,-104.2,64.2857)">
                <ellipse cx="1158" cy="383.5" rx="10" ry="10.5" style="fill:rgb(20,90,121);"/>
            </g>
            <g transform="matrix(0.9,0,0,0.857143,-93.2,27.2857)">
                <ellipse cx="1158" cy="383.5" rx="10" ry="10.5" style="fill:rgb(20,90,121);"/>
            </g>
            <g transform="matrix(0.9,0,0,0.857143,-71.2,-2.71429)">
                <ellipse cx="1158" cy="383.5" rx="10" ry="10.5" style="fill:rgb(20,90,121);"/>
            </g>
            <g transform="matrix(0.9,0,0,0.857143,-38.2,-22.7143)">
                <ellipse cx="1158" cy="383.5" rx="10" ry="10.5" style="fill:rgb(20,90,121);"/>
            </g>
            <g transform="matrix(0.9,0,0,0.857143,-0.2,-27.7143)">
                <ellipse cx="1158" cy="383.5" rx="10" ry="10.5" style="fill:rgb(20,90,121);"/>
            </g>
            <g transform="matrix(0.9,0,0,0.857143,33.8,-20.7143)">
                <ellipse cx="1158" cy="383.5" rx="10" ry="10.5" style="fill:rgb(20,90,121);"/>
            </g>
            <g transform="matrix(0.9,0,0,0.857143,62.8,0.285714)">
                <ellipse cx="1158" cy="383.5" rx="10" ry="10.5" style="fill:rgb(20,90,121);"/>
            </g>
            <g transform="matrix(0.9,0,0,0.857143,82.8,27.2857)">
                <ellipse cx="1158" cy="383.5" rx="10" ry="10.5" style="fill:rgb(20,90,121);"/>
            </g>
            <g transform="matrix(0.9,0,0,0.857143,91.8,62.2857)">
                <ellipse cx="1158" cy="383.5" rx="10" ry="10.5" style="fill:rgb(20,90,121);"/>
            </g>
            <g transform="matrix(0.75,0,0,0.714286,245.5,122.571)">
                <ellipse cx="1158" cy="383.5" rx="10" ry="10.5" style="fill:rgb(20,90,121);"/>
            </g>
            <g transform="matrix(0.75,0,0,0.714286,238,93.5714)">
                <ellipse cx="1158" cy="383.5" rx="10" ry="10.5" style="fill:rgb(20,90,121);"/>
            </g>
            <g transform="matrix(0.75,0,0,0.714286,223,71.5714)">
                <ellipse cx="1158" cy="383.5" rx="10" ry="10.5" style="fill:rgb(20,90,121);"/>
            </g>
            <g transform="matrix(0.75,0,0,0.714286,199,56.5714)">
                <ellipse cx="1158" cy="383.5" rx="10" ry="10.5" style="fill:rgb(20,90,121);"/>
            </g>
            <g transform="matrix(0.75,0,0,0.714286,172,49.0714)">
                <ellipse cx="1158" cy="383.5" rx="10" ry="10.5" style="fill:rgb(20,90,121);"/>
            </g>
            <g transform="matrix(0.75,0,0,0.714286,142,54.0714)">
                <ellipse cx="1158" cy="383.5" rx="10" ry="10.5" style="fill:rgb(20,90,121);"/>
            </g>
            <g transform="matrix(0.75,0,0,0.714286,115,69.0714)">
                <ellipse cx="1158" cy="383.5" rx="10" ry="10.5" style="fill:rgb(20,90,121);"/>
            </g>
            <g transform="matrix(0.75,0,0,0.714286,99,93.5714)">
                <ellipse cx="1158" cy="383.5" rx="10" ry="10.5" style="fill:rgb(20,90,121);"/>
            </g>
            <g transform="matrix(0.75,0,0,0.714286,91.5,124.571)">
                <ellipse cx="1158" cy="383.5" rx="10" ry="10.5" style="fill:rgb(20,90,121);"/>
            </g>
            <g transform="matrix(1.15385,0,0,1.11111,-181.308,-36.6667)">
                <ellipse cx="1172" cy="325.5" rx="13" ry="13.5" style="fill:rgb(20,90,121);"/>
            </g>
            <g transform="matrix(1.15385,0,0,1.11111,-213.308,-77.6667)">
                <ellipse cx="1172" cy="325.5" rx="13" ry="13.5" style="fill:rgb(20,90,121);"/>
            </g>
            <g transform="matrix(1.15385,0,0,1.11111,-257.308,-104.667)">
                <ellipse cx="1172" cy="325.5" rx="13" ry="13.5" style="fill:rgb(20,90,121);"/>
            </g>
            <g transform="matrix(1.15385,0,0,1.11111,-307.308,-114.667)">
                <ellipse cx="1172" cy="325.5" rx="13" ry="13.5" style="fill:rgb(20,90,121);"/>
            </g>
            <g transform="matrix(1.15385,0,0,1.11111,-363.308,-107.667)">
                <ellipse cx="1172" cy="325.5" rx="13" ry="13.5" style="fill:rgb(20,90,121);"/>
            </g>
            <g transform="matrix(1.15385,0,0,1.11111,-413.308,-80.6667)">
                <ellipse cx="1172" cy="325.5" rx="13" ry="13.5" style="fill:rgb(20,90,121);"/>
            </g>
            <g transform="matrix(1.15385,0,0,1.11111,-449.308,-37.6667)">
                <ellipse cx="1172" cy="325.5" rx="13" ry="13.5" style="fill:rgb(20,90,121);"/>
            </g>
            <g transform="matrix(1.15385,0,0,1.11111,-464.308,17.3333)">
                <ellipse cx="1172" cy="325.5" rx="13" ry="13.5" style="fill:rgb(20,90,121);"/>
            </g>
            <g transform="matrix(1.15385,0,0,1.11111,-165.308,13.3333)">
                <ellipse cx="1172" cy="325.5" rx="13" ry="13.5" style="fill:rgb(20,90,121);"/>
            </g>
        </g>
        <g id="B" transform="matrix(1,0,0,1,-642,63.7631)">
            <path d="M998,366C998,366 1049.1,365.719 1055,366C1060.9,366.281 1066.24,369.962 1071,374C1075.77,378.038 1078.57,386.496 1080,392C1081.43,397.504 1080.21,402.748 1078,412C1075.79,421.252 1062.57,425.396 1065,426C1067.43,426.604 1072.19,429.696 1076,434C1079.81,438.304 1081.18,445.724 1082,454C1082.82,462.276 1080.91,465.929 1076,477C1071.09,488.071 1055,490 1055,490L998,491L998,366Z" style="fill:rgb(20,90,121);"/>
            <path d="M1025,382C1025,382 1038.5,382.236 1047,382C1055.5,381.764 1062.77,383.937 1064,401C1065.23,418.063 1048,419 1048,419L1025,419L1025,382Z" style="fill:white;"/>
            <path d="M1025,435C1025,435 1039.19,435.243 1048.13,435C1057.06,434.758 1064.7,436.99 1066,454.514C1067.29,472.037 1049.18,473 1049.18,473L1025,473L1025,435Z" style="fill:white;"/>
        </g>
    </g>
</svg>
